<svg width="44" height="44" viewBox="0 0 44 44" fill="none" xmlns="http://www.w3.org/2000/svg">
<rect x="0.5" y="0.5" width="43" height="43" rx="5.5" stroke="#FFAA00"/>
<path fill-rule="evenodd" clip-rule="evenodd" d="M26.0909 20.3636C26.0909 23.5267 23.5267 26.0909 20.3636 26.0909C17.2005 26.0909 14.6364 23.5267 14.6364 20.3636C14.6364 17.2005 17.2005 14.6364 20.3636 14.6364C23.5267 14.6364 26.0909 17.2005 26.0909 20.3636ZM24.9599 26.1169C23.7002 27.1248 22.1023 27.7273 20.3636 27.7273C16.2968 27.7273 13 24.4305 13 20.3636C13 16.2968 16.2968 13 20.3636 13C24.4305 13 27.7273 16.2968 27.7273 20.3636C27.7273 22.1023 27.1248 23.7002 26.1169 24.9599L30.7604 29.6032C31.0799 29.9228 31.0799 30.4409 30.7604 30.7604C30.4409 31.0799 29.9228 31.0799 29.6032 30.7604L24.9599 26.1169Z" fill="#FFAA00"/>
</svg>
